<svg width="70" height="56" viewBox="0 0 70 56" fill="none" xmlns="http://www.w3.org/2000/svg">
<path opacity="0.5" d="M5.94185 8.022C-0.657711 15.19 0.00678529 24.395 0.0277737 24.5L0.0277713 52.5C0.0277712 53.4283 0.39624 54.3185 1.05213 54.9749C1.70802 55.6312 2.5976 56 3.52515 56L24.5095 56C28.3671 56 31.5043 52.8605 31.5043 49L31.5043 24.5C31.5043 23.5717 31.1358 22.6815 30.4799 22.0251C29.824 21.3688 28.9344 21 28.0069 21L17.2419 21C17.3158 19.2696 17.8324 17.5873 18.7423 16.114C20.519 13.3105 23.866 11.396 28.6959 10.43L31.5043 9.87L31.5043 4.26399e-06L28.0069 3.95824e-06C18.2736 3.10733e-06 10.8487 2.6985 5.94185 8.022ZM44.4376 8.022C37.8345 15.19 38.5025 24.395 38.5235 24.5L38.5235 52.5C38.5235 53.4283 38.892 54.3185 39.5479 54.9749C40.2038 55.6312 41.0933 56 42.0209 56L63.0052 56C66.8628 56 70 52.8605 70 49L70 24.5C70 23.5717 69.6315 22.6815 68.9756 22.0251C68.3198 21.3688 67.4302 21 66.5026 21L55.7377 21C55.8115 19.2696 56.3282 17.5873 57.238 16.114C59.0147 13.3105 62.3617 11.396 67.1916 10.43L70 9.87001L70 7.62939e-06L66.5026 7.32364e-06C56.7694 6.47274e-06 49.3444 2.6985 44.4376 8.022Z" fill="#162B32"/>
</svg>
