<svg width="26" height="26" viewBox="0 0 26 26" fill="none" xmlns="http://www.w3.org/2000/svg">
<path d="M24.375 8.125H23.1562V3.65625C23.1554 2.9023 22.8555 2.17947 22.3224 1.64635C21.7893 1.11323 21.0665 0.813347 20.3125 0.8125H5.6875C4.93355 0.813347 4.21072 1.11323 3.6776 1.64635C3.14448 2.17947 2.8446 2.9023 2.84375 3.65625V5.28125H12.5938V15.0312H9.36218L10.9688 13.2461V14.2188H11.7812V10.1562H10.9688V12.0316L8.26907 15.0312H3.65625V6.09375H2.84375V8.125H1.625C1.40959 8.12526 1.20308 8.21094 1.05076 8.36326C0.89844 8.51558 0.812755 8.72209 0.8125 8.9375V13C0.812755 13.2154 0.89844 13.4219 1.05076 13.5742C1.20308 13.7266 1.40959 13.8122 1.625 13.8125H2.84375V20.7188C2.84407 20.9707 2.92234 21.2163 3.06781 21.422C3.21328 21.6277 3.41882 21.7834 3.65625 21.8676V24.375C3.65651 24.5904 3.74219 24.7969 3.89451 24.9492C4.04683 25.1016 4.25334 25.1872 4.46875 25.1875H6.90625C7.12166 25.1872 7.32817 25.1016 7.48049 24.9492C7.63281 24.7969 7.71849 24.5904 7.71875 24.375V21.9375H21.5312V24.375H19.0938V22.75H18.2812V24.375C18.2815 24.5904 18.3672 24.7969 18.5195 24.9492C18.6718 25.1016 18.8783 25.1872 19.0938 25.1875H21.5312C21.7467 25.1872 21.9532 25.1016 22.1055 24.9492C22.2578 24.7969 22.3435 24.5904 22.3438 24.375V21.8676C22.5812 21.7834 22.7867 21.6277 22.9322 21.422C23.0777 21.2163 23.1559 20.9707 23.1562 20.7188V13.8125H24.375C24.5904 13.8122 24.7969 13.7266 24.9492 13.5742C25.1016 13.4219 25.1872 13.2154 25.1875 13V8.9375C25.1872 8.72209 25.1016 8.51558 24.9492 8.36326C24.7969 8.21094 24.5904 8.12526 24.375 8.125ZM3.65625 3.65625C3.65685 3.11771 3.87106 2.60141 4.25186 2.22061C4.63266 1.83981 5.14896 1.6256 5.6875 1.625H20.3125C20.851 1.6256 21.3673 1.83981 21.7481 2.22061C22.1289 2.60141 22.3431 3.11771 22.3438 3.65625V4.46875H3.65625V3.65625ZM13.4062 5.28125H22.3438V15.0312H17.7309L15.0312 12.0316V10.1562H14.2188V14.2188H15.0312V13.2461L16.6378 15.0312H13.4062V5.28125ZM1.625 13V8.9375H2.84375V13H1.625ZM6.90625 24.375H4.46875V21.9375H6.90625V24.375ZM21.9375 21.125H4.0625C3.95479 21.1249 3.85153 21.082 3.77537 21.0059C3.69921 20.9297 3.65637 20.8265 3.65625 20.7188V15.8438H7.53782L7.4168 15.9782L8.0207 16.5216L8.63093 15.8438H17.3691L17.9793 16.5218L18.5832 15.9784L18.4622 15.8438H22.3438V20.7188C22.3436 20.8265 22.3008 20.9297 22.2246 21.0059C22.1485 21.082 22.0452 21.1249 21.9375 21.125ZM24.375 13H23.1562V8.9375H24.375L24.3755 13H24.375Z" fill="#FF4838"/>
</svg>
