<svg width="35" height="19" viewBox="0 0 35 19" fill="none" xmlns="http://www.w3.org/2000/svg">
<path d="M34.6617 18.2215L23.9748 3.06357C23.902 2.9598 23.8005 2.90159 23.6543 2.90121C23.5275 2.90351 23.4096 2.96899 23.3407 3.07582L19.6083 8.82616L13.3927 0.331803C13.32 0.23186 13.2093 0.188207 13.0791 0.174805C12.9554 0.176336 12.8398 0.237604 12.7693 0.339079L0.337385 18.2238C0.256206 18.341 0.246633 18.4934 0.312495 18.6194C0.378358 18.7458 0.509317 18.825 0.651764 18.825H34.3489C34.4917 18.825 34.6231 18.7454 34.6889 18.6182C34.7548 18.4915 34.7441 18.3387 34.6617 18.2215ZM13.0917 1.2175L19.3181 9.72641C19.392 9.82788 19.4969 9.88915 19.6378 9.88302C19.7634 9.87958 19.8798 9.81448 19.9483 9.70879L23.6749 3.96765L28.1919 10.3743L25.6516 11.4438C24.8226 11.7934 23.8718 11.7199 23.1063 11.2497C22.0062 10.5746 20.6246 10.5482 19.4999 11.18L19.112 11.3979C18.1505 11.9382 16.9585 11.862 16.0743 11.2026L15.799 10.9973C14.7081 10.1844 13.2771 10.0607 12.0636 10.6761L11.4873 10.9678C10.5675 11.4335 9.47122 11.3565 8.62611 10.766L7.16412 9.74517L13.0917 1.2175ZM1.38429 18.0596L6.72682 10.3739L8.18728 11.3937C9.26406 12.1465 10.661 12.2441 11.8331 11.651L12.4094 11.3588C13.3613 10.8763 14.4848 10.9724 15.3406 11.6111L15.616 11.8164C16.2432 12.2839 16.9918 12.5214 17.7439 12.5214C18.3428 12.5214 18.9439 12.3705 19.4869 12.0657L19.8748 11.8478C20.7575 11.3511 21.8423 11.3722 22.705 11.9026C23.6811 12.5014 24.8938 12.5937 25.9483 12.1499L28.6434 11.0153L33.6102 18.0599H1.38429V18.0596Z" fill="#FF4838"/>
</svg>
