<svg width="27" height="35" viewBox="0 0 27 35" fill="none" xmlns="http://www.w3.org/2000/svg">
<path d="M13.1722 20.297C9.81771 20.297 7.09633 17.6702 6.97349 14.3157L6.88845 11.8022C6.879 11.4904 7.12468 11.2258 7.4365 11.2163C7.74833 11.2069 8.01291 11.4526 8.02236 11.7644L8.1074 14.2779C8.20189 17.0182 10.4225 19.1631 13.1722 19.1631C15.9219 19.1631 18.1425 17.0182 18.237 14.2779L18.3126 12.1801C18.322 11.8683 18.5866 11.6226 18.8984 11.6321C19.2102 11.6415 19.4559 11.9061 19.4465 12.2179L19.3709 14.3157C19.248 17.6702 16.5267 20.297 13.1722 20.297Z" fill="#FF4838"/>
<path d="M13.1816 26.9776C9.1184 26.9776 2.23936 25.9098 1.94643 25.8626C1.63461 25.8153 1.42673 25.5224 1.47397 25.2106C1.52122 24.8988 1.81414 24.6909 2.12597 24.7381C2.19211 24.7476 9.20344 25.8342 13.1816 25.8342C17.1502 25.8342 24.1616 24.7476 24.2277 24.7381C24.5395 24.6909 24.823 24.8988 24.8797 25.2106C24.927 25.5224 24.7191 25.8059 24.4072 25.8626C24.1143 25.9098 17.2353 26.9776 13.1816 26.9776Z" fill="#FF4838"/>
<path d="M21.4689 22.4326C21.4595 22.4326 21.4595 22.4326 21.4689 22.4326C21.1571 22.4326 20.902 22.1775 20.902 21.8656C20.9114 18.5584 20.8642 12.6621 20.4012 10.2903C20.2878 9.71392 20.1555 9.15642 20.0043 8.64616C19.9192 8.34378 20.0893 8.03196 20.3917 7.94692C20.6941 7.86187 21.0059 8.03196 21.091 8.33433C21.2516 8.88239 21.3933 9.46824 21.5067 10.0824C21.9603 12.4353 22.0359 17.793 22.0264 21.8751C22.0264 22.1775 21.7808 22.4326 21.4689 22.4326Z" fill="#FF4838"/>
<path d="M4.89443 22.4232C4.58261 22.4232 4.32748 22.1681 4.32748 21.8563C4.31803 19.0499 4.35583 15.119 4.57316 12.3409C4.64875 11.3865 4.74324 10.6211 4.84719 10.0636C4.96058 9.44944 5.10232 8.86359 5.26295 8.31554C5.348 8.01316 5.66927 7.84307 5.96219 7.92812C6.26457 8.01316 6.43466 8.33443 6.34961 8.62736C6.19843 9.13762 6.06614 9.69512 5.96219 10.2715C5.85825 10.7912 5.77321 11.5094 5.70707 12.4259C5.48973 15.1568 5.46139 19.0593 5.47084 21.8468C5.46139 22.1681 5.20626 22.4232 4.89443 22.4232Z" fill="#FF4838"/>
<path d="M13.1435 35C11.1403 35 9.18432 34.6126 7.34172 33.8378H7.33227C6.64248 33.5543 5.93378 33.3653 5.20619 33.2803L2.60765 32.9779C1.60604 32.8645 0.850098 32.0141 0.850098 31.003V28.3761C0.850098 23.7366 4.62034 19.9663 9.25991 19.9663H9.97806C10.2899 19.9663 10.545 20.2214 10.545 20.5333C10.545 20.8451 10.2899 21.1002 9.97806 21.1002H9.25991C5.24399 21.1002 1.98401 24.3602 1.98401 28.3761V31.0125C1.98401 31.4471 2.30528 31.8062 2.73994 31.8534L5.33848 32.1558C6.17002 32.2503 6.9921 32.4676 7.76693 32.7889H7.77638C9.49614 33.5071 11.3009 33.8661 13.153 33.8661C15.0145 33.8661 16.8287 33.4976 18.5485 32.7795C19.295 32.4676 20.0793 32.2598 20.8825 32.1653L23.6227 31.844C24.048 31.7967 24.3787 31.4282 24.3787 31.003V28.3761C24.3787 24.3602 21.1187 21.1002 17.1028 21.1002H16.3846C16.0728 21.1002 15.8177 20.8451 15.8177 20.5333C15.8177 20.2214 16.0728 19.9663 16.3846 19.9663H17.1028C21.7423 19.9663 25.5126 23.7366 25.5126 28.3761V31.0125C25.5126 32.0235 24.7567 32.8645 23.755 32.9873L21.0148 33.3086C20.3155 33.3937 19.6352 33.5638 18.9926 33.8378C17.1217 34.6126 15.1562 35 13.1435 35Z" fill="#FF4838"/>
<path d="M9.96881 22.3757C9.65698 22.3757 9.40186 22.1206 9.40186 21.8088V18.7283C9.40186 18.4165 9.65698 18.1614 9.96881 18.1614C10.2806 18.1614 10.5358 18.4165 10.5358 18.7283V21.7993C10.5358 22.1206 10.2806 22.3757 9.96881 22.3757Z" fill="#FF4838"/>
<path d="M16.3755 22.3757C16.0637 22.3757 15.8086 22.1206 15.8086 21.8088V18.7283C15.8086 18.4165 16.0637 18.1614 16.3755 18.1614C16.6874 18.1614 16.9425 18.4165 16.9425 18.7283V21.8088C16.9425 22.1206 16.6874 22.3757 16.3755 22.3757Z" fill="#FF4838"/>
<path d="M18.8699 12.7659C18.8415 12.7659 18.8132 12.7659 18.7848 12.7565C18.5675 12.7187 18.3974 12.5675 18.3313 12.3596C18.3218 12.3407 17.8115 10.6776 16.98 9.0618C16.8383 8.78778 16.9422 8.43815 17.2257 8.29642C17.5092 8.15468 17.8493 8.25862 17.9911 8.5421C18.4446 9.42087 18.8037 10.2997 19.0494 10.9516L20.3439 9.09015C20.5235 8.83502 20.8731 8.76888 21.1282 8.94841C21.3834 9.12795 21.4495 9.47757 21.27 9.7327L19.3423 12.5202C19.2289 12.6714 19.0588 12.7659 18.8699 12.7659Z" fill="#FF4838"/>
<path d="M5.13062 12.9548C4.84714 12.9548 4.61091 12.7469 4.57312 12.4634C4.53532 12.1516 4.75265 11.8681 5.06447 11.8303C5.70702 11.7453 6.45351 11.5468 7.26614 11.2539C8.96701 10.6303 10.8002 9.62865 12.2837 8.50419C12.5294 8.31521 12.8884 8.36245 13.0774 8.61758C13.2664 8.86326 13.2192 9.22233 12.964 9.41132C11.3955 10.6019 9.45837 11.6602 7.65356 12.3217C6.75589 12.6524 5.9338 12.8603 5.20621 12.9642C5.17787 12.9548 5.15897 12.9548 5.13062 12.9548Z" fill="#FF4838"/>
<path d="M13.1722 9.52499C12.9927 9.52499 12.8132 9.52499 12.6431 9.52499H12.6242C10.1296 9.50609 7.74837 9.33601 5.72623 9.05253C4.10097 8.8163 2.74028 8.50447 1.79535 8.1454C1.35124 7.97532 0 7.46506 0 6.45399C0 5.7264 0.670896 5.15 2.05993 4.66808C3.15604 4.29012 4.72462 3.96884 6.58611 3.74206C6.89794 3.70426 7.18141 3.9216 7.21921 4.23342C7.25701 4.54524 7.03968 4.82872 6.72785 4.86652C2.76862 5.33898 1.27565 6.13272 1.14336 6.44454C1.23785 6.67132 2.27726 7.39891 5.89632 7.91862C7.87121 8.2021 10.1957 8.36274 12.6431 8.38163H12.662C12.8415 8.38163 13.0116 8.38163 13.1911 8.38163C14.6558 8.38163 16.1015 8.33439 17.4622 8.23045C18.5394 8.15485 19.5599 8.04146 20.4954 7.90917C24.105 7.38946 25.1444 6.67132 25.2389 6.44454C25.1161 6.12327 23.6136 5.33898 19.6544 4.86652C19.3426 4.82872 19.1252 4.54524 19.163 4.23342C19.2008 3.9216 19.4843 3.70426 19.7961 3.74206C21.6576 3.96884 23.2262 4.29012 24.3223 4.66808C25.7019 5.15 26.3822 5.7264 26.3822 6.45399C26.3822 7.46506 25.031 7.97532 24.5869 8.1454C23.642 8.50447 22.2907 8.8163 20.6655 9.05253C19.7111 9.19427 18.6622 9.29821 17.5567 9.38325C16.1298 9.4683 14.6652 9.52499 13.1722 9.52499Z" fill="#FF4838"/>
<path d="M13.1724 6.8129C11.1314 6.8129 6.65243 6.49162 6.44455 6.41603C6.20832 6.34043 6.05713 6.1231 6.05713 5.87742V4.80021C6.05713 3.45842 6.58629 2.32451 7.67295 1.32289C8.59897 0.472462 9.79902 0 11.0558 0H15.3174C16.5741 0 17.7742 0.472462 18.7002 1.32289C19.7869 2.32451 20.3066 3.45842 20.3066 4.80021V5.34826C20.3066 5.48055 20.3066 5.62229 20.3066 5.72623V5.84907C20.2971 6.29319 19.9853 6.43493 19.7869 6.45382C19.5979 6.46327 15.5631 6.8129 13.1724 6.8129ZM7.18159 5.35771C8.36274 5.45221 11.3109 5.67899 13.1629 5.67899C15.015 5.67899 17.9632 5.45221 19.1443 5.35771C19.1443 5.16873 19.1443 4.9514 19.1443 4.79076C19.1443 3.77024 18.7474 2.93871 17.897 2.15442C17.1789 1.49298 16.2528 1.13391 15.289 1.13391H11.0274C10.0636 1.13391 9.13758 1.50243 8.41944 2.15442C7.56901 2.93871 7.17214 3.77969 7.17214 4.80021V5.35771H7.18159Z" fill="#FF4838"/>
<path d="M13.1723 23.3583C11.9061 23.3583 10.6871 22.9804 9.64771 22.2717C9.39258 22.0921 9.32644 21.7425 9.49652 21.4874C9.67606 21.2322 10.0257 21.1661 10.2808 21.3362C11.1312 21.922 12.1329 22.2244 13.1628 22.2244C14.2022 22.2244 15.1944 21.922 16.0448 21.3362C16.3 21.1567 16.659 21.2228 16.8291 21.4874C17.0087 21.7425 16.9425 22.1016 16.6779 22.2717C15.6574 22.9898 14.4385 23.3583 13.1723 23.3583Z" fill="#FF4838"/>
<path d="M11.7078 31.4376C11.67 31.4376 11.6416 31.4376 11.6038 31.4281C11.292 31.3714 11.0936 31.0785 11.1503 30.7667L12.6149 22.6876C12.6716 22.3758 12.9645 22.1773 13.2764 22.234C13.5882 22.2907 13.7866 22.5836 13.7299 22.8955L12.2653 30.9746C12.2086 31.2486 11.9724 31.4376 11.7078 31.4376Z" fill="#FF4838"/>
<path d="M15.9125 29.0848C15.7046 29.0848 15.4967 28.962 15.4022 28.7636L12.6619 23.0468C12.5296 22.7633 12.643 22.4231 12.9265 22.2908C13.21 22.1586 13.5502 22.2719 13.6824 22.5554L16.4227 28.2722C16.555 28.5557 16.4416 28.8958 16.1581 29.0281C16.0826 29.0659 15.9975 29.0848 15.9125 29.0848Z" fill="#FF4838"/>
</svg>
