<svg width="27" height="33" viewBox="0 0 27 33" fill="none" xmlns="http://www.w3.org/2000/svg">
<path d="M23.8097 15.6846C23.5402 15.6846 23.3213 15.4656 23.3213 15.1962V11.6563C23.3213 11.3869 23.5402 11.168 23.8097 11.168C24.0791 11.168 24.298 11.3869 24.298 11.6563V15.1962C24.298 15.4656 24.0791 15.6846 23.8097 15.6846Z" fill="#FF4838"/>
<path d="M25.6317 19.7468C25.2068 19.7468 24.7908 19.6296 24.4286 19.409C24.1983 19.2682 24.1258 18.9678 24.2667 18.7375C24.4075 18.5071 24.7078 18.4347 24.9382 18.5755C25.0041 18.6154 25.0725 18.6496 25.1433 18.6773V11.4086C25.1433 10.1161 24.1853 9.0327 22.9155 8.88782C22.2603 8.81212 21.5896 8.77387 20.9205 8.77387C20.6511 8.77387 20.4297 8.55491 20.4297 8.28549C20.4297 8.01607 20.6462 7.79712 20.9156 7.79712C21.627 7.79712 22.336 7.83782 23.027 7.91758C24.79 8.11863 26.12 9.61956 26.12 11.4086V19.2584C26.12 19.5278 25.9011 19.7468 25.6317 19.7468Z" fill="#FF4838"/>
<path d="M20.9157 32.4299H17.41C17.2211 32.4299 17.0486 32.3208 16.968 32.1499C16.8874 31.979 16.9126 31.7771 17.0331 31.6306C17.6086 30.9322 18.0733 30.3844 18.3012 30.1175L16.8272 22.157C16.3697 19.685 16.7417 15.9262 18.0253 14.2714C18.1905 14.0582 18.4974 14.0199 18.7107 14.1851C18.9239 14.3504 18.9622 14.6572 18.7969 14.8705C17.7966 16.1598 17.3245 19.4823 17.7868 21.9796L19.3032 30.1695C19.3301 30.3152 19.2894 30.465 19.1925 30.5773C19.1885 30.5822 18.9003 30.9159 18.4502 31.4531H20.4257V18.9354C20.4257 18.6659 20.6446 18.447 20.914 18.447C21.1835 18.447 21.4024 18.6659 21.4024 18.9354V31.9415C21.404 32.2109 21.1851 32.4299 20.9157 32.4299Z" fill="#FF4838"/>
<path d="M24.4262 32.4299H20.9205C20.6511 32.4299 20.4321 32.2109 20.4321 31.9415V18.9354C20.4321 18.6659 20.6511 18.447 20.9205 18.447C21.1899 18.447 21.4089 18.6659 21.4089 18.9354V31.4531H23.3843C22.9342 30.9159 22.6461 30.5822 22.642 30.5773C22.5452 30.465 22.5045 30.3152 22.5313 30.1695L24.0477 21.9796C24.51 19.4815 24.0379 16.1598 23.0376 14.8705C22.8724 14.6572 22.9106 14.3504 23.1239 14.1851C23.3371 14.0199 23.644 14.0582 23.8092 14.2714C25.0928 15.9262 25.4656 19.685 25.0074 22.157L23.5333 30.1175C23.7612 30.3844 24.226 30.9322 24.8014 31.6306C24.9219 31.7763 24.9471 31.979 24.8666 32.1499C24.7876 32.3208 24.615 32.4299 24.4262 32.4299Z" fill="#FF4838"/>
<path d="M23.4252 15.0587C23.404 15.0587 23.3821 15.0571 23.3609 15.0547C23.0931 15.0197 22.9051 14.7738 22.9409 14.5069L23.3251 11.5929C23.3601 11.3251 23.6051 11.1379 23.8729 11.1729C24.1407 11.2079 24.3287 11.4537 24.2929 11.7207L23.9087 14.6347C23.8761 14.8797 23.6669 15.0587 23.4252 15.0587Z" fill="#FF4838"/>
<path d="M6.79682 32.4301H2.37054C2.20286 32.4301 2.0474 32.3446 1.95786 32.203C1.74949 31.8741 1.69414 31.5062 1.79833 31.1391C2.00996 30.3903 2.85484 29.8108 3.30903 29.5454L3.05263 17.0935C3.04693 16.8241 3.261 16.6011 3.53124 16.5954C3.80065 16.5881 4.02368 16.8038 4.02938 17.074L4.29228 29.823C4.29635 30.0126 4.18972 30.1876 4.01879 30.2715C3.65496 30.4513 2.86217 30.9649 2.73845 31.4061C2.73356 31.4232 2.73031 31.4387 2.72786 31.4549H6.30844L6.31007 20.1906C6.31007 19.9212 6.52903 19.7023 6.79844 19.7023C7.06786 19.7023 7.28682 19.9212 7.28682 20.1906L7.28519 31.9433C7.28519 32.2111 7.06624 32.4301 6.79682 32.4301Z" fill="#FF4838"/>
<path d="M11.2273 32.4299H6.80103C6.53162 32.4299 6.31266 32.2109 6.31266 31.9415L6.31104 20.1888C6.31104 19.9194 6.52999 19.7005 6.79941 19.7005C7.06882 19.7005 7.28778 19.9194 7.28778 20.1888L7.28941 31.4531H10.87C10.8675 31.4377 10.8643 31.4214 10.8594 31.4043C10.7357 30.9631 9.94289 30.4495 9.57824 30.2696C9.40812 30.1858 9.3015 30.0108 9.30557 29.8212L9.56847 17.0722C9.57417 16.8028 9.79964 16.5879 10.0666 16.5936C10.336 16.5993 10.5501 16.8223 10.5452 17.0918L10.2888 29.5436C10.7438 29.809 11.5887 30.3893 11.7995 31.1373C11.9037 31.5052 11.8484 31.8731 11.64 32.2012C11.5496 32.3436 11.3942 32.4299 11.2273 32.4299Z" fill="#FF4838"/>
<path d="M8.17616 6.80667H6.71755C5.43558 6.80667 4.39209 5.76318 4.39209 4.4812V3.31399C4.39209 2.03201 5.43558 0.988525 6.71755 0.988525H6.8893C8.17128 0.988525 9.21476 2.03201 9.21476 3.31399V5.76887C9.21395 6.34108 8.74837 6.80667 8.17616 6.80667ZM6.71755 1.96527C5.9736 1.96527 5.36883 2.57004 5.36883 3.31399V4.4812C5.36883 5.22515 5.9736 5.82992 6.71755 5.82992H8.17616C8.20872 5.82992 8.23721 5.80143 8.23721 5.76887V3.31399C8.23721 2.57004 7.63244 1.96527 6.88849 1.96527H6.71755Z" fill="#FF4838"/>
<path d="M10.0566 17.5702H3.54339C3.27397 17.5702 3.05501 17.352 3.05501 17.0818L3.05176 11.3866C3.05176 11.1171 3.2699 10.8982 3.54013 10.8982C3.80955 10.8982 4.0285 11.1163 4.0285 11.3866L4.03094 16.5934H9.56746V11.3866C9.56746 11.1171 9.78641 10.8982 10.0558 10.8982C10.3252 10.8982 10.5442 11.1171 10.5442 11.3866V17.0818C10.545 17.3512 10.3261 17.5702 10.0566 17.5702Z" fill="#FF4838"/>
<path d="M1.54195 19.4856C1.40765 19.4856 1.32219 19.4759 1.30998 19.4751C1.06416 19.4458 0.879395 19.2374 0.879395 18.9899V11.1833C0.879395 9.3983 2.20858 7.89818 3.97079 7.69225C4.9044 7.58318 5.85265 7.52783 6.78951 7.52783C6.79277 7.52783 6.79603 7.52783 6.8001 7.52783C7.06951 7.52783 7.28847 7.74679 7.28847 8.0162C7.28847 8.28562 7.06951 8.50458 6.8001 8.50458C6.79684 8.50458 6.79358 8.50458 6.79033 8.50458C5.89091 8.50458 4.98091 8.55748 4.08474 8.66167C2.81498 8.80981 1.85777 9.89318 1.85777 11.1825V18.4845C2.08893 18.4478 2.373 18.3608 2.59928 18.1573C2.90044 17.8862 3.05347 17.4475 3.05347 16.8517V11.386C3.05347 11.1166 3.27242 10.8976 3.54184 10.8976C3.81126 10.8976 4.03021 11.1166 4.03021 11.386V16.8517C4.03021 17.7413 3.76567 18.4275 3.24312 18.8915C2.65544 19.4124 1.91312 19.4856 1.54195 19.4856Z" fill="#FF4838"/>
<path d="M13.1919 18.5071C13.1439 18.5071 13.0958 18.4997 13.0494 18.4859C12.5025 18.3418 11.7748 17.917 11.3637 16.7156L9.59421 11.5445C9.50712 11.2898 9.64305 11.0114 9.89782 10.9243C10.1526 10.8372 10.431 10.9731 10.518 11.2279L12.2876 16.3989C12.5082 17.0428 12.8516 17.4286 13.3091 17.5442C13.3946 17.5661 13.4735 17.6101 13.5362 17.6728C13.7266 17.8632 13.7266 18.1725 13.5362 18.3638C13.4418 18.4599 13.3164 18.5071 13.1919 18.5071Z" fill="#FF4838"/>
<path d="M13.9059 16.4154C13.7024 16.4154 13.5135 16.2876 13.4435 16.0849L11.7684 11.1898C11.2158 9.59121 10.7372 8.80411 9.51459 8.66248C8.61517 8.55748 7.70192 8.50458 6.79843 8.50458C6.52901 8.50458 6.31006 8.28562 6.31006 8.0162C6.31006 7.74679 6.52901 7.52783 6.79843 7.52783C7.73936 7.52783 8.69087 7.58318 9.62692 7.69225C11.5169 7.91202 12.1551 9.32179 12.6915 10.8724L14.3674 15.7691C14.4545 16.0239 14.3185 16.3023 14.0638 16.3894C14.0117 16.4073 13.958 16.4154 13.9059 16.4154Z" fill="#FF4838"/>
<path d="M18.4109 15.0585C18.17 15.0585 17.96 14.8795 17.9274 14.6337L17.5433 11.7197C17.5083 11.4519 17.6963 11.2069 17.9633 11.1719C18.231 11.1369 18.476 11.3249 18.511 11.5919L18.8952 14.5059C18.9302 14.7737 18.7422 15.0187 18.4752 15.0537C18.4541 15.0569 18.4321 15.0585 18.4109 15.0585Z" fill="#FF4838"/>
<path d="M23.4266 15.0488H18.4102C18.1408 15.0488 17.9219 14.8298 17.9219 14.5604C17.9219 14.291 18.1408 14.072 18.4102 14.072H23.4266C23.6961 14.072 23.915 14.291 23.915 14.5604C23.915 14.8298 23.6961 15.0488 23.4266 15.0488Z" fill="#FF4838"/>
<path d="M14.1436 18.7222C13.5014 18.7222 12.9967 18.4666 12.9674 18.4519C12.7517 18.3412 12.6508 18.0889 12.7289 17.8594L15.0275 11.1426C15.6925 9.22169 16.5651 8.30274 18.0416 7.96902C18.8686 7.78181 19.7053 7.78832 20.5144 7.79402C20.6503 7.79483 20.7862 7.79564 20.9222 7.79564C21.1916 7.79564 21.4105 8.0146 21.4105 8.28402C21.4105 8.55343 21.1916 8.77239 20.9222 8.77239C20.7846 8.77239 20.6462 8.77157 20.5079 8.76995C19.7192 8.76425 18.9752 8.75855 18.2573 8.92053C17.1292 9.17529 16.504 9.86309 15.9522 11.4592L13.8131 17.7104C14.0353 17.756 14.3218 17.7715 14.5929 17.6608C14.9575 17.511 15.2408 17.1496 15.4337 16.5855C15.4369 16.5749 15.441 16.5652 15.4451 16.5546L17.5785 11.4649C17.6826 11.2159 17.9683 11.0987 18.2174 11.2037C18.4665 11.3079 18.5837 11.5944 18.4787 11.8426L16.351 16.9176C16.0604 17.7568 15.5892 18.3119 14.9502 18.5691C14.6735 18.6823 14.3975 18.7222 14.1436 18.7222Z" fill="#FF4838"/>
<path d="M20.034 7.12318C19.6034 7.12318 19.2135 6.84318 19.0825 6.42725C18.958 6.03167 18.8521 5.39841 18.7911 4.69109C18.6617 3.30085 18.9335 2.28097 19.6002 1.66237C20.3335 0.9819 21.2777 1.05516 21.4861 1.08202C22.239 1.11132 23.6268 1.59725 23.6765 3.25609C23.7725 6.48016 21.7628 6.88876 21.6766 6.90423C21.6692 6.90585 21.6627 6.90667 21.6554 6.90748L20.152 7.11667C20.1463 7.11748 20.1398 7.1183 20.1341 7.11911C20.1008 7.12155 20.0674 7.12318 20.034 7.12318ZM21.2053 2.04167C20.9839 2.04167 20.5737 2.08725 20.2578 2.38516C19.8362 2.78237 19.6653 3.54992 19.7638 4.60399C19.8183 5.23806 19.9119 5.80946 20.0145 6.13504C20.0169 6.14155 20.0242 6.14644 20.0324 6.14644L21.5008 5.94213C21.6261 5.90957 22.7681 5.55144 22.7005 3.28376C22.6671 2.15806 21.6375 2.06364 21.4316 2.05632C21.4104 2.0555 21.3852 2.05306 21.364 2.04981C21.364 2.05062 21.303 2.04167 21.2053 2.04167Z" fill="#FF4838"/>
<path d="M23.6781 4.2541C23.438 4.2541 23.2182 4.21259 23.0066 4.12794C22.7567 4.02701 22.6346 3.74294 22.7356 3.49306C22.8365 3.24236 23.1206 3.12108 23.3704 3.22201C23.4665 3.26108 23.5617 3.27817 23.6773 3.27817C24.1543 3.27817 24.5425 2.88992 24.5425 2.41294C24.5425 1.93596 24.1543 1.54771 23.6773 1.54771C23.3232 1.54771 23.0196 1.7455 22.8853 2.06457C22.7803 2.31282 22.4938 2.42922 22.2456 2.32422C21.9973 2.21922 21.8809 1.93271 21.9859 1.68445C22.2716 1.00806 22.9358 0.571777 23.6773 0.571777C24.6931 0.571777 25.5193 1.39794 25.5193 2.41375C25.5193 3.42957 24.6939 4.2541 23.6781 4.2541Z" fill="#FF4838"/>
</svg>
