<svg width="35" height="23" viewBox="0 0 35 23" fill="none" xmlns="http://www.w3.org/2000/svg">
<path d="M28.7272 11.5826C26.9828 11.5826 25.5679 10.2168 25.5073 8.47245L25.4249 6.10007C25.394 5.2193 25.7143 4.38427 26.3274 3.75057C26.9394 3.11687 27.763 2.76685 28.6449 2.76685H28.8096C29.6915 2.76685 30.514 3.11573 31.1271 3.75057C31.739 4.38427 32.0605 5.21929 32.0296 6.10121L31.9472 8.47359C31.8866 10.2168 30.4716 11.5826 28.7272 11.5826ZM28.6449 4.13948C28.1393 4.13948 27.6669 4.33966 27.3146 4.70341C26.9634 5.06716 26.7792 5.54644 26.7964 6.05203L26.8787 8.4244C26.9131 9.42529 27.7252 10.2088 28.7272 10.2088C29.7281 10.2088 30.5403 9.42529 30.5746 8.4244L30.6569 6.05203C30.6741 5.54644 30.4899 5.06716 30.1388 4.70341C29.7876 4.33966 29.3152 4.13948 28.8084 4.13948H28.6449Z" fill="#FF4838"/>
<path d="M6.27313 11.5828C4.52874 11.5828 3.11377 10.217 3.05315 8.47261L2.97079 6.10024C2.93991 5.21946 3.26019 4.38444 3.8733 3.74959C4.48641 3.11589 5.30885 2.76587 6.19077 2.76587H6.35549C7.23741 2.76587 8.05985 3.11475 8.67296 3.74959C9.28607 4.38329 9.60636 5.21832 9.57547 6.09909L9.49311 8.47376C9.43249 10.217 8.01753 11.5828 6.27313 11.5828ZM6.19077 4.13965C5.68518 4.13965 5.21277 4.33983 4.86046 4.70358C4.50815 5.06733 4.32513 5.54661 4.34229 6.05219L4.42465 8.42457C4.45896 9.42545 5.27111 10.209 6.27199 10.209C7.27287 10.209 8.08502 9.42545 8.12048 8.42457L8.20283 6.05219C8.21999 5.54661 8.03583 5.06733 7.68466 4.70358C7.3335 4.33983 6.86108 4.13965 6.35435 4.13965H6.19077Z" fill="#FF4838"/>
<path d="M30.5881 12.7037H26.8648C25.5986 12.7037 24.4078 13.2516 23.5796 14.1735C22.5742 13.1658 21.2004 12.5847 19.7546 12.5847H15.0384C13.6314 12.5847 12.3183 13.1166 11.322 14.066C10.4984 13.2024 9.35797 12.7037 8.13403 12.7037H4.41075C1.97889 12.7037 0 14.6814 0 17.1133V18.359C0 19.051 0.518171 19.6309 1.20449 19.7099L2.43872 19.8517C2.74985 19.8883 3.05069 19.9661 3.33437 20.085C3.33894 20.0873 3.34695 20.0896 3.35381 20.0931C4.2792 20.4762 5.25606 20.6707 6.25923 20.6707C7.27041 20.6707 8.25642 20.4728 9.19096 20.0816C9.34881 20.0153 9.51239 19.9638 9.68054 19.9249C9.82809 20.5403 10.3451 21.0184 10.9994 21.0939L12.5654 21.2747C12.9703 21.3204 13.3672 21.4245 13.7561 21.5858L13.7584 21.5869C14.9126 22.0662 16.1319 22.3099 17.3822 22.3099C18.6393 22.3099 19.8644 22.0639 21.022 21.5801C21.3823 21.4302 21.7609 21.3307 22.1487 21.285L23.7981 21.0939C24.465 21.0173 24.99 20.5209 25.125 19.8872C25.3538 19.9306 25.5768 19.9958 25.7885 20.085C25.793 20.0873 25.801 20.0896 25.8079 20.0931C26.7333 20.4762 27.7101 20.6707 28.7133 20.6707C29.7245 20.6707 30.7105 20.4728 31.645 20.0816C31.9139 19.9684 32.1998 19.894 32.4938 19.8608L33.7955 19.7099C34.4818 19.6309 35 19.051 35 18.3601V17.1133C35 14.6826 33.0211 12.7037 30.5881 12.7037ZM8.66021 18.8165C7.89496 19.1368 7.08739 19.2992 6.25809 19.2992C5.43336 19.2992 4.63037 19.1391 3.87084 18.8222C3.86627 18.8199 3.85826 18.8176 3.8514 18.8142C3.45333 18.6495 3.03124 18.5397 2.59658 18.4882L1.37264 18.3475V17.1133C1.37264 15.4387 2.73613 14.0763 4.41075 14.0763H8.13403C9.03539 14.0763 9.87271 14.4675 10.4446 15.1413C9.91274 15.9934 9.63478 16.968 9.63478 17.9883V18.5328C9.29963 18.59 8.97248 18.685 8.66021 18.8165ZM23.7867 19.5657C23.7867 19.6504 23.7238 19.7213 23.6403 19.7304L21.9885 19.9215C21.4738 19.981 20.9693 20.1136 20.4912 20.3138C19.5018 20.7279 18.4551 20.9372 17.381 20.9372C16.3127 20.9372 15.2706 20.729 14.2743 20.3161H14.2732C13.7756 20.1091 13.2528 19.9729 12.7209 19.9123L11.155 19.7316C11.0715 19.7224 11.0086 19.6515 11.0086 19.5669V19.1379V17.9895C11.0086 17.0973 11.2934 16.2531 11.8333 15.5473L11.8344 15.5462C12.6031 14.5373 13.771 13.9585 15.0407 13.9585H19.7568C21.0711 13.9585 22.3054 14.6014 23.0603 15.6789C23.5362 16.3583 23.7878 17.1567 23.7878 17.9895V19.5657H23.7867ZM33.6274 18.3475L32.3359 18.4974C31.9139 18.5465 31.5032 18.6529 31.1154 18.8154C30.3502 19.1356 29.5426 19.2981 28.7133 19.2981C27.8886 19.2981 27.0856 19.1379 26.3261 18.8211C26.3215 18.8188 26.3135 18.8165 26.3066 18.8131C25.9417 18.6621 25.5562 18.5603 25.1593 18.5042V17.9883C25.1593 17.0321 24.91 16.1078 24.4364 15.29C25.0072 14.5339 25.9051 14.0763 26.866 14.0763H30.5893C32.265 14.0763 33.6274 15.4387 33.6274 17.1133V18.3475Z" fill="#FF4838"/>
<path d="M17.3968 11.3174C15.1903 11.3174 13.4024 9.59017 13.3258 7.3848L13.2159 4.21515C13.177 3.10102 13.582 2.04523 14.3575 1.24338C15.1319 0.441532 16.1728 0 17.2881 0H17.5089C18.6241 0 19.6651 0.441532 20.4395 1.24338C21.2138 2.04523 21.6199 3.10102 21.581 4.21515L21.4712 7.3848C21.3923 9.59017 19.6033 11.3174 17.3968 11.3174ZM17.287 1.3715C16.548 1.3715 15.8571 1.66432 15.3435 2.19622C14.8299 2.72812 14.5611 3.42817 14.5874 4.1671L14.6972 7.33676C14.7487 8.79862 15.9338 9.94362 17.3968 9.94362C18.8598 9.94362 20.046 8.79862 20.0963 7.33676L20.2061 4.1671C20.2313 3.42817 19.9625 2.72812 19.4489 2.19622C18.9353 1.66432 18.2455 1.3715 17.5054 1.3715H17.287Z" fill="#FF4838"/>
</svg>
