<svg width="35" height="31" viewBox="0 0 35 31" fill="none" xmlns="http://www.w3.org/2000/svg">
<path d="M34.8507 5.48856C34.6515 5.28937 34.3287 5.28943 34.1295 5.48856L30.9659 8.65224C30.4443 9.17375 29.751 9.46093 29.0135 9.46093C28.3004 9.46093 27.629 9.19166 27.1138 8.70234C27.1679 8.6521 27.2183 8.60377 27.2641 8.55804C28.152 7.67012 28.6473 6.49522 28.6588 5.24972C28.6703 4.00072 28.1942 2.83041 27.3183 1.95446C25.5128 0.148813 22.5503 0.173149 20.7148 2.00866C20.5542 2.16924 20.364 2.38341 20.1532 2.64078C19.2334 2.24765 18.2349 2.04079 17.2046 2.04079H17.1579C13.0215 2.04079 9.65626 5.40599 9.65626 9.54241C9.65626 11.5462 10.4366 13.43 11.8535 14.8468C12.4116 15.405 13.177 16.1701 14.0149 17.0076L1.86172 27.4111L11.1642 16.5441C11.3473 16.3302 11.3224 16.0082 11.1084 15.8251C10.8945 15.642 10.5725 15.667 10.3894 15.8809L0.226904 27.7525C-0.0929497 28.1262 -0.072647 28.6498 0.275165 28.9976C0.623935 29.3464 1.14777 29.3648 1.52026 29.0459L14.7382 17.7308C16.6394 19.631 18.706 21.6964 19.5273 22.517C18.674 23.3705 16.7825 25.4294 16.7825 26.9124C16.7825 28.8266 18.3399 30.3841 20.2542 30.3841C22.1685 30.3841 23.7259 28.8266 23.7259 26.9124C23.7259 25.4293 21.8343 23.3702 20.981 22.5169L21.5388 21.9591C22.2226 21.2753 22.5992 20.3661 22.5992 19.399C22.5992 18.4319 22.2226 17.5227 21.5388 16.8389L20.8919 16.1921C20.6928 15.993 20.37 15.993 20.1708 16.1921C19.9717 16.3913 19.9717 16.7141 20.1708 16.9133L20.8176 17.5601C21.3089 18.0513 21.5794 18.7044 21.5794 19.399C21.5794 20.0936 21.3089 20.7468 20.8176 21.2379L20.2541 21.8016C19.0335 20.5818 15.0122 16.5632 12.93 14.4813L15.4224 11.5697C16.4342 10.3879 17.3345 9.0654 18.0985 7.63895C18.8396 6.25535 19.7164 4.90498 20.4443 3.92573C20.9293 4.20655 21.3809 4.55225 21.7878 4.95912L23.4854 6.65662L23.0291 7.11285C22.7896 7.35245 22.3997 7.35252 22.1601 7.11306C22.1427 7.09569 22.1264 7.0773 22.1115 7.05851C21.9368 6.83757 21.6161 6.80024 21.3953 6.97483C21.1019 7.20206 21.1709 7.61632 21.4388 7.83397C21.7574 8.1526 22.176 8.31194 22.5946 8.31194C23.0131 8.31194 23.4317 8.1526 23.7503 7.83397L25.3492 6.23512C25.9865 5.59787 25.9865 4.56093 25.3492 3.92368C24.7119 3.28644 23.675 3.28644 23.0377 3.92368L22.6162 4.34519L22.5091 4.238C22.0742 3.80317 21.5952 3.42856 21.0824 3.11779C21.212 2.9657 21.3311 2.83472 21.4359 2.72986C22.874 1.29192 25.1892 1.26758 26.5972 2.67565C27.2781 3.35644 27.648 4.26733 27.6391 5.24035C27.6301 6.217 27.2408 7.13917 26.543 7.83698C25.7935 8.5864 23.7524 10.0397 21.6338 11.1743C20.2074 11.9383 18.8849 12.8386 17.7031 13.8503L16.1189 15.2064C15.905 15.3895 15.88 15.7114 16.0631 15.9254C16.2469 16.14 16.5692 16.1636 16.7821 15.9812L18.3663 14.6251C19.4924 13.6612 20.7537 12.8027 22.1153 12.0733C23.7642 11.1902 25.3027 10.1628 26.3288 9.36208L26.3401 9.37343C27.0542 10.0875 28.0036 10.4808 29.0136 10.4808C30.0235 10.4808 30.9729 10.0876 31.687 9.37343L34.8507 6.20976C35.0498 6.01063 35.0498 5.6877 34.8507 5.48856ZM23.7587 4.64481C23.9984 4.40521 24.3883 4.40521 24.628 4.64481C24.8677 4.88447 24.8677 5.2744 24.628 5.51406L24.2065 5.93557L23.3372 5.06638L23.7587 4.64481ZM20.2542 29.3643C18.9023 29.3643 17.8023 28.2644 17.8023 26.9124C17.8023 25.9888 19.188 24.2961 20.2544 23.2312C21.3206 24.2952 22.7061 25.9873 22.7061 26.9124C22.7061 28.2644 21.6062 29.3643 20.2542 29.3643ZM17.1995 7.15749C16.4702 8.51914 15.6117 9.78051 14.6477 10.9065L12.2204 13.7421C11.2211 12.571 10.676 11.0987 10.676 9.54241C10.676 5.96838 13.5837 3.06065 17.1578 3.06065H17.2045C18.0038 3.06065 18.7809 3.20468 19.5066 3.47983C18.7818 4.47022 17.94 5.77479 17.1995 7.15749Z" fill="#FF4838"/>
</svg>
