<svg width="35" height="35" viewBox="0 0 35 35" fill="none" xmlns="http://www.w3.org/2000/svg">
<path d="M0 15.5019C0.089342 14.8223 0.1486 14.1382 0.271673 13.465C1.2754 7.94302 4.15805 3.70577 8.89044 0.745937C9.22867 0.534718 9.58057 0.34462 9.93338 0.159114C10.4576 -0.116389 10.9453 -0.0319016 11.2927 0.378599C11.6473 0.798283 11.6318 1.2997 11.2881 1.79653C10.639 2.73599 9.91605 3.63873 9.38274 4.64248C7.03067 9.07258 7.00059 13.5918 9.16941 18.0834C11.0994 22.0791 14.1562 24.9223 18.3106 26.4605C22.774 28.1136 27.0396 27.5525 31.0573 25.027C31.7119 24.6156 32.3172 24.1224 32.938 23.6568C33.4467 23.2748 33.939 23.2537 34.3712 23.6146C34.7942 23.9682 34.8744 24.4806 34.5699 25.0445C31.6982 30.3663 27.3241 33.6595 21.3974 34.7174C12.0375 36.3897 2.94191 30.4416 0.583458 21.1562C0.32546 20.1396 0.233383 19.0798 0.0629041 18.0402C0.044671 17.9282 0.020968 17.8171 0 17.705C0 16.9713 0 16.2366 0 15.5019ZM18.3042 34.3317C19.2541 34.2334 20.215 34.1949 21.1531 34.0268C26.8801 32.9983 31.1229 29.8786 33.9117 24.7432C34.0138 24.5559 34.115 24.363 33.908 24.1867C33.692 24.0021 33.516 24.1335 33.3328 24.2721C32.7785 24.6927 32.237 25.1363 31.6544 25.5147C27.5146 28.1981 23.0876 28.8831 18.4045 27.2724C14.3385 25.8746 11.2535 23.2133 9.08827 19.4921C7.17198 16.1989 6.45268 12.6532 7.11637 8.86779C7.60592 6.08245 8.84669 3.64516 10.6171 1.46868C10.7666 1.28409 10.9271 1.09766 10.7402 0.862567C10.5606 0.637573 10.3546 0.758794 10.1576 0.862567C2.90544 4.68656 -0.775817 13.061 1.29181 21.0322C3.30839 28.806 10.2561 34.2169 18.3042 34.3317Z" fill="#FF4838"/>
<path d="M21.3363 4.50173C23.0393 2.39046 25.6193 2.05251 27.5438 2.95157C29.8038 4.00766 30.7747 6.05098 30.4511 9.0751C30.8969 9.04479 31.3509 8.94836 31.7903 8.99612C34.3611 9.27254 35.7523 11.9073 34.579 14.2445C34.032 15.3345 33.1851 16.1647 32.2461 16.9058C30.8394 18.0152 29.2832 18.8711 27.6523 19.592C26.9995 19.8804 26.4152 19.7123 26.0031 19.1209C25.6184 18.568 25.2546 18.0005 24.8581 17.4045C24.7131 17.5377 24.5773 17.6681 24.4351 17.793C23.8097 18.3449 23.1925 18.9069 22.5543 19.4423C21.7584 20.1099 20.9297 20.1081 20.1366 19.4496C17.7882 17.5018 15.613 15.3869 13.9219 12.8164C13.054 11.4968 12.3739 10.0963 12.1423 8.50389C11.8086 6.21078 13.0339 3.92501 15.1398 2.95157C17.2248 1.98822 19.6379 2.52913 21.1595 4.30154C21.2114 4.36031 21.2634 4.41908 21.3363 4.50173ZM29.5348 9.63712C29.6196 9.40386 29.7217 9.23948 29.7336 9.06867C29.7764 8.4543 29.8576 7.83166 29.8001 7.22371C29.5376 4.46592 26.8336 2.6228 24.2071 3.38686C23.1487 3.69451 22.3209 4.32725 21.7156 5.25753C21.474 5.62946 21.2233 5.62854 20.9753 5.27039C20.9361 5.21437 20.8997 5.1556 20.8605 5.09958C19.699 3.44839 17.5976 2.78718 15.7397 3.4888C13.8663 4.19593 12.6501 6.14282 12.8261 8.12002C12.9546 9.56457 13.5216 10.8429 14.2738 12.0459C15.9776 14.7698 18.2595 16.9554 20.7119 18.9749C21.1221 19.3128 21.6025 19.2944 22.0274 18.9317C22.8087 18.2641 23.5662 17.568 24.3421 16.8939C24.4916 16.7644 24.4651 16.6634 24.3876 16.5146C24.1716 16.0986 23.9528 15.6826 23.7641 15.2537C23.1788 13.9249 22.7056 12.563 22.774 11.0789C22.8397 9.67294 23.4751 8.59572 24.7231 7.94278C25.9101 7.32289 27.0934 7.3982 28.2294 8.11267C28.7928 8.46715 29.1912 8.97592 29.5348 9.63712ZM34.2736 12.3793C34.228 11.4233 33.7604 10.5086 32.7056 9.99436C31.6554 9.48284 30.6471 9.63161 29.7263 10.3488C29.2978 10.6822 29.1191 10.639 28.9322 10.1321C28.4892 8.93092 27.4143 8.21185 26.149 8.27063C24.9857 8.32481 23.8963 9.23856 23.5936 10.4186C23.3794 11.2543 23.4641 12.0873 23.6784 12.9028C24.2463 15.0655 25.3695 16.949 26.6376 18.7545C26.8436 19.0474 27.1208 19.0373 27.428 18.8986C28.7718 18.2925 30.0663 17.5992 31.2715 16.7451C32.1048 16.1546 32.8806 15.4998 33.4878 14.666C33.9409 14.0461 34.2663 13.373 34.2736 12.3793Z" fill="#FF4838"/>
<path d="M18.3042 34.3322C10.2561 34.2174 3.30746 28.8065 1.29179 21.0327C-0.775837 13.0615 2.90542 4.68706 10.1576 0.86307C10.3555 0.759296 10.5606 0.638075 10.7402 0.86307C10.9271 1.09817 10.7666 1.28459 10.6171 1.46918C8.84666 3.64566 7.6059 6.08295 7.11726 8.86921C6.45357 12.6537 7.17196 16.2004 9.08916 19.4936C11.2543 23.2138 14.3394 25.8751 18.4053 27.2738C23.0894 28.8846 27.5164 28.1995 31.6553 25.5161C32.2379 25.1386 32.7794 24.6951 33.3337 24.2735C33.5169 24.1349 33.6929 24.0036 33.9089 24.1881C34.1159 24.3645 34.0138 24.5564 33.9126 24.7447C31.1229 29.88 26.881 32.9997 21.154 34.0282C20.2159 34.1963 19.255 34.2339 18.3042 34.3322Z" fill="white"/>
<path d="M29.5347 9.63717C29.192 8.97596 28.7936 8.4672 28.2292 8.1118C27.0933 7.39824 25.9109 7.32202 24.723 7.9419C23.475 8.59393 22.8396 9.67207 22.7739 11.0781C22.7046 12.5621 23.1787 13.924 23.764 15.2529C23.9527 15.6817 24.1706 16.0977 24.3875 16.5137C24.465 16.6625 24.4915 16.7635 24.342 16.893C23.5661 17.5671 22.8086 18.2632 22.0273 18.9308C21.6034 19.2936 21.122 19.3119 20.7118 18.974C18.2585 16.9546 15.9775 14.7689 14.2737 12.0451C13.5206 10.842 12.9545 9.5637 12.826 8.11915C12.65 6.14103 13.8661 4.19413 15.7396 3.48793C17.5975 2.78723 19.6989 3.44752 20.8604 5.09871C20.8996 5.15472 20.9369 5.21258 20.9752 5.26952C21.2232 5.62767 21.4739 5.62859 21.7155 5.25666C22.3208 4.32638 23.1486 3.69364 24.207 3.38599C26.8335 2.62284 29.5375 4.46596 29.8 7.22284C29.8584 7.83078 29.7763 8.45342 29.7335 9.0678C29.7207 9.23953 29.6186 9.40391 29.5347 9.63717Z" fill="white"/>
<path d="M34.2737 12.3792C34.2664 13.3728 33.9409 14.046 33.4878 14.6668C32.8798 15.5006 32.1039 16.1554 31.2716 16.7459C30.0664 17.6 28.7719 18.2933 27.4281 18.8994C27.1199 19.0381 26.8428 19.0482 26.6377 18.7553C25.3696 16.9498 24.2464 15.0663 23.6784 12.9036C23.4642 12.0881 23.3794 11.2551 23.5937 10.4194C23.8963 9.23935 24.9858 8.3256 26.149 8.27141C27.4144 8.21264 28.4892 8.9317 28.9323 10.1329C29.1192 10.6398 29.2988 10.683 29.7264 10.3496C30.6471 9.6324 31.6554 9.48271 32.7056 9.99515C33.7604 10.5085 34.2281 11.4232 34.2737 12.3792Z" fill="white"/>
</svg>
