<svg width="92" height="58" viewBox="0 0 92 58" fill="none" xmlns="http://www.w3.org/2000/svg">
<path d="M91.9971 41.523C91.9737 41.2282 87.0263 44.1977 78.7018 44.7668C70.3918 45.6308 58.6842 44.0945 45.6842 41.6381C32.6842 39.1816 21.1228 39.5384 12.9825 42.2956C4.79532 44.758 0.0233918 49.6207 0 49.3228C0.0233918 49.6177 4.97076 46.6482 13.2982 46.0791C21.6082 45.215 33.3187 46.7514 46.3158 49.2078C59.3129 51.6642 70.8772 51.3104 79.0175 48.5532C87.2047 46.0909 91.9737 41.2282 92 41.526" fill="#FF4838"/>
<path d="M69.5353 52.8113C69.5353 52.599 65.8598 54.445 59.8862 54.3919C53.9183 54.5512 45.6639 52.8143 36.5382 50.349C27.4125 47.8838 19.1698 47.5034 13.2136 49.0191C7.26336 50.3225 3.60254 53.525 3.60254 53.3127C3.60254 53.525 7.2809 51.679 13.2517 51.732C19.2166 51.5728 27.4739 53.3097 36.5967 55.775C45.7195 58.2402 53.9651 58.6177 59.9213 57.102C65.8803 55.7986 69.5441 52.5961 69.547 52.8084" fill="#FF4838"/>
<path d="M82.319 39.1699C80.7225 36.4215 78.1289 31.8803 76.5295 29.1054C74.9301 26.3305 72.3657 26.3334 70.7693 29.1054C70.088 30.3203 69.1962 31.8803 68.3073 33.4432L50.7809 2.87515C48.6084 -0.958384 45.0178 -0.958384 42.7956 2.87515C42.7956 2.87515 33.9915 18.2771 32.3394 21.1582C31.9973 20.5684 29.123 15.5317 29.123 15.5317C26.9154 11.6982 23.3277 11.6982 21.1318 15.5317L8.69029 37.2472L5.12012 43.5018C7.42275 42.2136 9.85451 41.1757 12.3745 40.4055H12.3511L12.4125 40.3848H12.3745C21.047 37.4566 33.0032 37.203 46.0383 39.6653C61.1289 42.5198 71.4418 43.4988 78.4944 42.7705H78.5646C80.368 42.6483 82.1603 42.3941 83.9272 42.0096L82.319 39.1699Z" fill="#FF4838"/>
</svg>
