<svg width="58" height="58" viewBox="0 0 58 58" fill="none" xmlns="http://www.w3.org/2000/svg">
<path d="M44.2643 38.4712C48.575 34.4074 51.2706 28.6482 51.2706 22.2704C51.2706 17.1942 49.607 12.4131 46.4597 8.44389C43.4068 4.59368 39.1132 1.82644 34.3701 0.651942C33.7635 0.501959 33.1487 0.871936 32.9983 1.47924C32.848 2.08654 33.2183 2.70075 33.8257 2.85119C42.763 5.06425 49.0049 13.0498 49.0049 22.2704C49.0049 33.3012 40.0308 42.2753 29 42.2753C17.9694 42.2753 8.9951 33.3012 8.9951 22.2704C8.9951 13.0498 15.2371 5.06425 24.1745 2.85119C24.7818 2.70075 25.1521 2.08654 25.0018 1.47924C24.8514 0.871936 24.237 0.501392 23.6298 0.651942C18.8867 1.82644 14.5933 4.59368 11.5404 8.44389C8.39306 12.4131 6.72949 17.1942 6.72949 22.2704C6.72949 28.648 9.42502 34.4074 13.7356 38.4711L7.80486 49.8138C7.51566 50.3669 7.72838 51.0498 8.28054 51.3408L8.32135 51.3623C8.57459 51.4958 8.86895 51.5284 9.14553 51.4536L17.365 49.2283L20.229 57.2481C20.3804 57.6718 20.7683 57.9659 21.2173 57.9972C21.2437 57.999 21.2699 57.9999 21.2961 57.9999C21.7154 57.9999 22.1033 57.7673 22.2996 57.392L29 44.5775L35.7005 57.392C35.8967 57.7675 36.2847 58 36.7039 57.9999C36.7302 57.9999 36.7565 57.999 36.7828 57.9972C37.2318 57.966 37.6197 57.6718 37.7711 57.2481L40.635 49.2283L48.8545 51.4537C49.1308 51.5287 49.4253 51.4961 49.6787 51.3624L49.7195 51.3409C50.2717 51.0499 50.4844 50.367 50.195 49.8138L44.2643 38.4712ZM21.4917 54.0475L19.1465 47.4803C18.9477 46.9236 18.354 46.6132 17.7836 46.7678L10.9928 48.6064L15.5062 39.9747C18.6372 42.3669 22.4182 43.9482 26.5342 44.4037L21.4917 54.0475ZM40.2164 46.7678C39.646 46.6134 39.0524 46.9236 38.8536 47.4803L36.5083 54.0475L31.4657 44.4037C35.5818 43.9482 39.3627 42.3669 42.4937 39.9747L47.0071 48.6064L40.2164 46.7678Z" fill="#FF4838"/>
<path d="M29 2.26562C29.6256 2.26562 30.1328 1.75844 30.1328 1.13281C30.1328 0.507177 29.6256 0 29 0C28.3744 0 27.8672 0.507177 27.8672 1.13281C27.8672 1.75844 28.3744 2.26562 29 2.26562Z" fill="#FF4838"/>
<path d="M12.3936 22.2706C12.3936 31.4273 19.8431 38.877 29 38.877C38.1569 38.877 45.6065 31.4274 45.6065 22.2706C45.6065 13.1137 38.1569 5.66406 29 5.66406C19.8431 5.66406 12.3936 13.1137 12.3936 22.2706ZM43.3409 22.2706C43.3409 30.1781 36.9076 36.6113 29 36.6113C21.0925 36.6113 14.6592 30.1781 14.6592 22.2706C14.6592 14.3629 21.0925 7.92969 29 7.92969C36.9076 7.92969 43.3409 14.3629 43.3409 22.2706Z" fill="#FF4838"/>
<path d="M27.9803 16.1746L25.6465 21.004L20.4156 19.8175C20.0066 19.7249 19.5803 19.8654 19.3067 20.183C19.0333 20.5006 18.9574 20.9433 19.1096 21.3337L21.2179 26.7406H21.0706C20.445 26.7406 19.9378 27.2477 19.9378 27.8734C19.9378 28.499 20.445 29.0062 21.0706 29.0062H36.93C37.5555 29.0062 38.0628 28.499 38.0628 27.8734C38.0628 27.2477 37.5555 26.7406 36.93 26.7406H36.7827L38.891 21.3337C39.0433 20.9433 38.9676 20.5006 38.694 20.183C38.4206 19.8653 37.994 19.7249 37.5851 19.8173L32.3542 21.0039L30.0203 16.1745C29.8312 15.7832 29.4348 15.5345 29.0003 15.5345C28.5658 15.5347 28.1693 15.7833 27.9803 16.1746ZM30.7062 22.8009C30.9357 23.2757 31.4626 23.5293 31.9768 23.4127L36.0049 22.4991L34.3511 26.7407H23.6498L21.9959 22.4991L26.0241 23.4127C26.5382 23.5291 27.0651 23.2757 27.2946 22.8009L29.0003 19.2709L30.7062 22.8009Z" fill="#FF4838"/>
</svg>
