<svg width="58" height="58" viewBox="0 0 58 58" fill="none" xmlns="http://www.w3.org/2000/svg">
<g clip-path="url(#clip0_6:12323)">
<path d="M24.5952 27.097C24.9237 26.5906 24.7084 24.931 24.7084 24.931C12.5069 20.7306 3.37304 15.4562 3.89073 13.3174C4.14222 12.2571 4.49679 11.7961 4.74261 11.7134C5.28636 11.531 6.52226 12.1812 8.03796 13.1781L10.5494 10.2237C9.36335 9.49193 6.42937 7.08017 3.54863 8.0204C2.37843 8.39989 0.823078 9.47267 0.112804 12.4078C-1.5377 19.2885 14.8677 25.494 23.6674 28.547L24.594 27.0958L24.5952 27.097Z" fill="#FF4838"/>
<path d="M53.152 13.7648C52.7487 13.1984 52.325 12.6422 51.8832 12.1121C49.4083 9.12871 46.3059 6.7278 42.7972 5.08032C39.2884 3.43284 35.4595 2.57933 31.5832 2.58057H31.5198C31.4937 2.58057 31.4631 2.58623 31.4314 2.58623C27.5822 2.60781 23.7844 3.47175 20.3047 5.11739C16.825 6.76303 13.7477 9.15046 11.2889 12.1121C10.8471 12.6479 10.4245 13.1973 10.0269 13.7648C9.71766 14.1998 9.43333 14.6484 9.15579 15.097C9.7052 15.4437 10.3305 15.8163 11.0306 16.2072C11.2719 15.822 11.5109 15.438 11.7692 15.0642C13.5342 16.2266 15.4271 17.1822 17.4106 17.912C17.2973 18.3346 17.2044 18.7764 17.1025 19.2057C17.7459 19.4901 18.4199 19.7721 19.1098 20.0519C19.2231 19.566 19.3182 19.0743 19.4497 18.6065C22.7824 19.626 26.532 20.2411 30.5082 20.3363V23.0947L30.6407 23.1762L30.8299 24.309L31.1199 26.0445L32.673 26.4433V20.3363C33.4422 20.317 34.1943 20.2672 34.9454 20.2105L35.5118 18.6008L35.727 17.9823C34.7302 18.0774 33.7129 18.1465 32.6684 18.1715V4.8394C37.0683 5.51908 40.8621 10.0787 43.0144 16.5991C41.9722 16.9084 40.8677 17.1655 39.744 17.3819C40.5492 17.7822 41.2348 18.3874 41.7321 19.1366C42.3631 18.9792 43.0008 18.8274 43.6125 18.6382C44.4713 21.9484 44.909 25.3537 44.9153 28.7735H41.5565C41.5191 28.9944 41.4874 29.196 41.45 29.4294C42.7629 29.972 44.3285 30.6154 44.6683 30.7547C45.672 31.1705 46.423 31.7901 46.9215 32.5536C46.9668 32.0178 47.0166 31.4865 47.0348 30.9371H52.2457C52.1517 31.6168 52.0622 32.2886 51.9432 32.932C52.2774 32.761 52.5618 32.4336 52.7136 31.8083C52.7821 31.5233 52.8076 31.2297 52.7895 30.9371H55.7563C55.4129 35.2515 53.9099 39.393 51.4063 42.9234C49.6068 41.7415 47.676 40.7728 45.6527 40.037C45.7728 39.6077 45.8668 39.1659 45.9745 38.7241C45.2513 39.2802 44.3616 39.576 43.4494 39.5635C43.1048 39.5612 42.7608 39.5317 42.4208 39.4751L42.3449 39.4627C42.0866 39.4423 41.7264 39.4106 39.5299 38.6606C39.7882 38.314 40.0963 37.8529 40.4361 37.3228V36.2376C41.4557 36.591 42.3302 36.8753 42.533 36.8867C43.0994 36.9252 44.546 37.4236 44.9629 35.6938C45.3797 33.964 44.3002 33.3965 43.6941 33.1495C43.3543 33.0113 41.7627 32.3565 40.4361 31.8117V29.6151L39.6794 31.5024C39.0224 31.2305 38.5557 31.0357 38.5557 31.0357C38.5557 31.0357 40.1903 22.0094 39.7429 20.8664C39.2954 19.7234 37.9496 19.4651 37.9496 19.4651L34.3801 29.5664L30.5036 28.5627L28.8452 28.1345L28.2788 24.744L26.4742 23.584C26.4742 23.584 26.5807 26.3798 26.3088 27.8887C26.2739 28.1246 26.2107 28.3555 26.1208 28.5763C26.0902 28.6398 26.0313 28.7157 25.9871 28.7848C25.7445 29.1613 25.4725 29.5182 25.1738 29.8519C25.0174 30.0286 24.852 30.2053 24.6934 30.382C24.6765 30.4013 24.6561 30.4206 24.6379 30.4398C24.485 30.6041 24.3366 30.7615 24.1848 30.9077C23.692 31.4061 23.2944 31.7777 23.2944 31.7777L24.8804 32.9524L27.5107 30.9451L28.1055 30.484L29.0525 30.9451L31.4439 32.0937L32.6684 32.6805L32.9392 32.8131L28.963 42.7229C28.963 42.7229 30.2703 43.8908 31.2479 43.1341C32.2255 42.3774 36.4113 34.8011 36.4113 34.8011C36.4113 34.8011 37.1374 35.0719 38.0969 35.414L37.8703 35.9691C37.9972 35.9691 38.1229 35.9498 38.2498 35.9498V38.2222C38.1547 38.1849 38.0663 38.1599 37.9655 38.1214C37.8273 38.0965 37.6811 38.084 37.5418 38.0648C37.1125 38.8226 36.7216 39.4978 36.3739 40.0959C38.6217 40.331 40.844 40.7663 43.0144 41.3964C40.8553 47.9168 37.0626 52.4741 32.6628 53.1561V45.2876C32.0284 45.7334 31.2722 45.9735 30.4968 45.9752V53.172C26.0551 52.5625 22.216 48.0029 20.0376 41.4315C22.3943 40.7363 24.8128 40.2712 27.2593 40.0427L28.1565 37.7963C25.1989 38.0093 22.2738 38.5469 19.4338 39.3992C18.7157 36.6347 18.2949 33.8013 18.1786 30.9473H20.4125L20.979 30.4104C19.2118 29.8062 17.5412 29.1983 15.9674 28.5865C15.9674 28.65 15.9617 28.7134 15.9617 28.7769H7.33876C7.34967 27.4556 7.47169 26.1377 7.70352 24.8369C7.00798 24.4586 6.34415 24.0859 5.7143 23.7041C5.35441 25.4466 5.17073 27.2208 5.16602 29C5.16185 34.4592 6.85892 39.7841 10.0213 44.2341C10.4177 44.8005 10.8414 45.3578 11.2832 45.8891C16.1067 51.6665 23.3397 55.3708 31.4269 55.4138C31.4575 55.4138 31.4892 55.4195 31.522 55.4195H31.5855C35.4608 55.42 39.2887 54.5662 42.7964 52.9187C46.3042 51.2713 49.4056 48.8707 51.8798 45.888C52.3329 45.3567 52.7453 44.8016 53.1474 44.2329C56.3054 39.7803 58.0023 34.4566 58.0035 28.9977C58.0047 23.5388 56.3102 18.2144 53.1542 13.7603L53.152 13.7648ZM18.0234 15.8922C16.2753 15.2522 14.6036 14.4202 13.0391 13.4114C15.9011 10.0032 19.644 7.44638 23.8597 6.01979C21.4332 8.35564 19.4202 11.7813 18.0234 15.8922ZM30.5036 18.1715C26.7291 18.0842 23.1755 17.5088 20.0444 16.5674C22.2228 10.0028 26.0551 5.43752 30.5036 4.82693V18.1715ZM7.42032 30.9473H16.0036C16.1349 34.0368 16.6071 37.1023 17.4117 40.088C15.4281 40.8173 13.5348 41.7721 11.7692 42.9336C9.26931 39.4013 7.76707 35.2608 7.42032 30.9473ZM13.0436 44.5886C14.6079 43.5793 16.2796 42.7472 18.028 42.1078C19.4168 46.2165 21.4377 49.6444 23.8688 51.9802C19.654 50.5525 15.9114 47.9963 13.0481 44.5898L13.0436 44.5886ZM39.1141 52.0482C41.5825 49.701 43.6341 46.2358 45.0342 42.0693C46.8203 42.7129 48.5272 43.5582 50.1217 44.5886C47.2171 48.0504 43.4048 50.6337 39.113 52.0482H39.1141ZM39.1141 5.95068C43.4076 7.36559 47.2218 9.94916 50.1285 13.4114C48.7681 14.2832 47.3265 15.0211 45.8238 15.6147L45.6969 15.583L45.6652 15.6781C45.4568 15.7665 45.2495 15.856 45.0342 15.9308C43.6273 11.7711 41.5814 8.30467 39.1141 5.95068ZM47.0801 28.7735C47.0739 25.1212 46.5941 21.4851 45.6527 17.9562C47.6757 17.2199 49.6058 16.2501 51.404 15.0664C54.2428 19.077 55.7868 23.86 55.8288 28.7735H47.0801Z" fill="#FF4838"/>
</g>
<defs>
<clipPath id="clip0_6:12323">
<rect width="58" height="58" fill="white"/>
</clipPath>
</defs>
</svg>
