<svg width="26" height="26" viewBox="0 0 26 26" fill="none" xmlns="http://www.w3.org/2000/svg">
<path d="M20.5483 16.106C20.016 15.5518 19.374 15.2554 18.6936 15.2554C18.0186 15.2554 17.3711 15.5463 16.8168 16.1005L15.0828 17.8291C14.9401 17.7522 14.7974 17.6809 14.6603 17.6096C14.4627 17.5108 14.2761 17.4175 14.117 17.3187C12.4927 16.2871 11.0166 14.9426 9.60081 13.2031C8.91487 12.3361 8.45393 11.6063 8.11919 10.8655C8.56916 10.4539 8.98621 10.0259 9.39228 9.61431C9.54593 9.46066 9.69958 9.30152 9.85323 9.14787C11.0056 7.9955 11.0056 6.50291 9.85323 5.35054L8.35515 3.85246C8.18504 3.68234 8.00944 3.50674 7.84482 3.33115C7.51557 2.99092 7.16986 2.63972 6.81317 2.31047C6.28088 1.78368 5.64434 1.50381 4.97486 1.50381C4.30539 1.50381 3.65787 1.78368 3.10912 2.31047C3.10364 2.31596 3.10364 2.31596 3.09815 2.32145L1.23241 4.20365C0.530009 4.90605 0.129423 5.7621 0.0416231 6.75533C-0.0900763 8.35768 0.381847 9.85027 0.74402 10.827C1.63299 13.2251 2.96096 15.4475 4.94194 17.8291C7.34546 20.699 10.2374 22.9653 13.5408 24.5622C14.8029 25.1603 16.4876 25.8682 18.3698 25.9889C18.485 25.9944 18.6058 25.9999 18.7155 25.9999C19.9831 25.9999 21.0477 25.5445 21.8818 24.639C21.8873 24.6281 21.8982 24.6226 21.9037 24.6116C22.1891 24.2659 22.5183 23.9531 22.864 23.6184C23.1 23.3934 23.3414 23.1574 23.5774 22.9105C24.1207 22.3453 24.406 21.6868 24.406 21.0118C24.406 20.3314 24.1152 19.6783 23.5609 19.1296L20.5483 16.106Z" fill="white"/>
<path d="M14.0512 6.18495C15.4889 6.4264 16.7949 7.10685 17.8375 8.14947C18.8802 9.19209 19.5551 10.4981 19.8021 11.9358C19.8624 12.298 20.1752 12.5504 20.5319 12.5504C20.5758 12.5504 20.6142 12.5449 20.6581 12.5395C21.0642 12.4736 21.3331 12.0895 21.2672 11.6834C20.9709 9.94387 20.1478 8.35799 18.8911 7.10136C17.6345 5.84473 16.0486 5.0216 14.3091 4.72528C13.903 4.65943 13.5244 4.92832 13.4531 5.3289C13.3817 5.72949 13.6451 6.1191 14.0512 6.18495Z" fill="white"/>
<path d="M25.9702 11.4691C25.4818 8.60468 24.1319 5.99813 22.0576 3.92387C19.9833 1.8496 17.3768 0.49968 14.5123 0.011294C14.1117 -0.0600432 13.7331 0.214331 13.6618 0.614917C13.5959 1.02099 13.8648 1.39963 14.2709 1.47096C16.828 1.90447 19.1602 3.11721 21.015 4.96649C22.8698 6.82125 24.077 9.15343 24.5105 11.7106C24.5709 12.0728 24.8837 12.3252 25.2403 12.3252C25.2842 12.3252 25.3227 12.3197 25.3666 12.3142C25.7671 12.2539 26.0415 11.8697 25.9702 11.4691Z" fill="white"/>
</svg>
