<svg width="20" height="29" viewBox="0 0 20 29" fill="none" xmlns="http://www.w3.org/2000/svg">
<path d="M17.1201 24.1735C17.1362 23.9333 17.0028 23.7061 16.7821 23.6062L12.5002 21.6677C12.5002 21.6677 12.5002 21.6677 12.5001 21.6677C12.2078 21.5354 11.8674 21.6693 11.7387 21.9605L11.7387 21.9605C11.7112 22.0228 11.6949 22.0893 11.6903 22.1571L11.6903 22.1571L11.4831 25.253L11.483 25.2533C11.3815 26.7964 12.5333 28.1367 14.0646 28.2435L14.0652 28.2436C14.1292 28.2479 14.1929 28.2501 14.2563 28.2501L14.257 28.2501C15.7184 28.2478 16.9242 27.1015 17.0226 25.6323L17.0226 25.6323L17.1201 24.1735ZM17.1201 24.1735L16.8707 24.1568M17.1201 24.1735L17.1201 24.1735L16.8707 24.1568M16.8707 24.1568C16.8799 24.0192 16.8034 23.8903 16.679 23.834L16.8707 24.1568ZM15.8747 25.5544C15.8137 26.4656 15.0359 27.149 14.1431 27.0877L12.3816 25.3143L12.6309 25.331L12.7826 23.0658L15.9455 24.4973L15.8747 25.5544Z" fill="#FF4838" stroke="#FF4838" stroke-width="0.5"/>
<path d="M10.6153 13.7125L10.6155 13.7124L10.6121 13.6929L10.6106 13.6847L10.6108 13.6847C10.2946 11.4806 10.9324 9.96587 11.5346 9.07839C12.1367 8.19086 12.8096 7.75269 12.9514 7.66642C14.0896 6.88468 15.6766 6.94664 16.9092 7.78387L16.9092 7.78388C17.9187 8.46961 18.6276 9.61063 18.9804 11.0562C19.3945 12.7529 19.3286 14.8551 18.8039 17.2945C18.8013 17.3067 18.7985 17.3174 18.7965 17.3249L18.796 17.3269L18.796 17.3269L17.4386 22.2469C17.4386 22.247 17.4386 22.247 17.4386 22.2471C17.4301 22.2781 17.4189 22.3085 17.4052 22.3379M10.6153 13.7125L17.1786 22.2322M10.6153 13.7125L10.6172 13.7216L11.9622 20.1345L11.9622 20.1346C11.9991 20.3107 12.1156 20.4607 12.279 20.5385M10.6153 13.7125L12.3865 20.3128M17.4052 22.3379L17.1786 22.2322M17.4052 22.3379C17.4053 22.3378 17.4053 22.3377 17.4053 22.3376L17.1786 22.2322M17.4052 22.3379C17.2708 22.6266 16.9279 22.7535 16.6383 22.6156L12.279 20.5385M17.1786 22.2322C17.1022 22.3967 16.9084 22.4673 16.7459 22.3899L12.3865 20.3128M12.279 20.5385L12.3865 20.3128M12.279 20.5385L12.2789 20.5385L12.3865 20.3128M13.5282 8.6695C13.5388 8.66262 13.5458 8.65837 13.5491 8.65633C13.5622 8.6487 13.5758 8.64011 13.5895 8.63052C14.1924 8.21035 15.2611 8.06174 16.2658 8.74429L16.2658 8.7443C17.123 9.32656 17.7021 10.3507 17.9539 11.7682C18.2054 13.1839 18.1252 14.9697 17.683 17.0329L16.513 21.2741L13.0289 19.614L11.7468 13.5008C11.5391 12.0265 11.7886 10.7733 12.4676 9.75744L12.4922 9.72068C12.7406 9.35694 13.0032 9.09168 13.2053 8.91643C13.3097 8.82597 13.3975 8.75981 13.4585 8.71676C13.4889 8.69525 13.5126 8.67955 13.5282 8.6695Z" fill="#FF4838" stroke="#FF4838" stroke-width="0.5"/>
<path d="M8.24567 20.9094L8.24568 20.9094L8.24567 20.9094ZM8.24567 20.9094C8.33733 22.3186 7.28316 23.5362 5.89113 23.629C5.83427 23.6327 5.77774 23.6345 5.72142 23.6345C4.39227 23.6324 3.29197 22.5881 3.20438 21.2455L3.10941 19.7865C3.10047 19.6488 3.17722 19.5201 3.30173 19.464L7.58741 17.5335C7.68455 17.4898 7.7967 17.4969 7.8877 17.5525C7.97871 17.6082 8.03715 17.7054 8.04414 17.8127L8.24567 20.9091V20.9094ZM4.65497 22.3191C4.33011 22.0311 4.13103 21.6235 4.10268 21.1858L4.10268 21.1858L4.03388 20.1289L7.1995 18.7031L7.34694 20.9686L7.34698 20.9692C7.37662 21.4062 7.2323 21.8365 6.94706 22.1644L6.94658 22.1649C6.35511 22.8488 5.32978 22.9172 4.65497 22.3191ZM4.65497 22.3191L4.48913 22.5061L4.65497 22.3191ZM7.48477 17.3056L7.48473 17.3056L3.19906 19.2361C3.19905 19.2361 3.19905 19.2361 3.19905 19.2361C2.97818 19.3356 2.84433 19.5624 2.85993 19.8027L2.85994 19.8027L2.9549 21.2617L2.95491 21.2617C3.0509 22.7331 4.25768 23.8822 5.72104 23.8845H5.72142C5.78311 23.8845 5.84502 23.8825 5.90726 23.8785L5.90776 23.8784C7.43749 23.7765 8.59143 22.442 8.49567 20.9015V20.901L8.49514 20.8928L8.29361 17.7965L8.29361 17.7965C8.28139 17.6088 8.1792 17.4377 8.01811 17.3392C7.8567 17.2405 7.65733 17.2279 7.48477 17.3056Z" fill="#FF4838" stroke="#FF4838" stroke-width="0.5"/>
<path d="M7.70806 14.1771L7.70803 14.1771L3.34463 16.2458L3.34456 16.2458L3.23746 16.0199C3.22104 16.0277 3.20396 16.0341 3.18646 16.039C3.01338 16.0876 2.83413 15.9849 2.78616 15.8097L1.43793 10.8871C1.43619 10.881 1.43467 10.8748 1.43359 10.8686C0.917996 8.44948 0.861949 6.38801 1.26697 4.74178C1.61171 3.34073 2.29447 2.26146 3.24153 1.62075C4.40443 0.834066 5.88226 0.791539 6.92332 1.51358L7.70806 14.1771ZM7.70806 14.1771C7.87132 14.0996 7.98829 13.95 8.02558 13.7738C8.02558 13.7738 8.02558 13.7738 8.02558 13.7738L9.38237 7.36337L9.38254 7.36258C9.385 7.35075 9.38712 7.33883 9.38888 7.3268L9.38893 7.32649C9.70919 5.12294 9.07418 3.60703 8.4737 2.71841L8.26656 2.85838L8.4737 2.71841C7.87318 1.82974 7.20106 1.39031 7.05948 1.30378M7.70806 14.1771L7.05948 1.30378M7.05948 1.30378C5.92278 0.519691 4.33561 0.578791 3.10145 1.41368L3.10144 1.41368C2.09068 2.09749 1.37972 3.2372 1.02421 4.68205L1.0242 4.68205C0.607182 6.37709 0.668897 8.47844 1.18839 10.9175C1.19107 10.9315 1.19422 10.9439 1.19703 10.9539C1.19713 10.9543 1.19722 10.9547 1.19732 10.955L2.54503 15.8757L7.05948 1.30378ZM3.74284 2.37523L3.74283 2.37524C2.88457 2.95588 2.30353 3.97894 2.04913 5.39589C1.79505 6.81114 1.87194 8.59704 2.31027 10.661L3.47245 14.9045L6.95962 13.2512L8.25302 7.14044C8.46375 5.66646 8.21656 4.41282 7.5395 3.39568L7.53949 3.39567C7.03804 2.64227 6.46836 2.2977 6.45895 2.29201C6.45894 2.29201 6.45894 2.29201 6.45894 2.292C6.45886 2.29196 6.45883 2.29194 6.45883 2.29194L6.45903 2.29206L6.58627 2.07686C6.57868 2.07242 6.57039 2.06715 6.56318 2.0621L3.74284 2.37523ZM3.74284 2.37523C4.74911 1.69443 5.81775 1.84538 6.4198 2.26689L3.74284 2.37523Z" fill="#FF4838" stroke="#FF4838" stroke-width="0.5"/>
</svg>
