<svg width="41" height="27" viewBox="0 0 41 27" fill="none" xmlns="http://www.w3.org/2000/svg">
<path d="M35.4592 11.8803C36.6599 11.0053 37.4549 9.5497 37.4549 7.90901C37.4549 5.22499 35.3619 3.05422 32.774 3.05422C30.1862 3.05422 28.0932 5.22499 28.0932 7.90901C28.0932 9.5497 28.8801 11.0053 30.0888 11.8803C29.0586 12.2505 28.1175 12.8227 27.3225 13.5631C26.2273 12.5955 24.9375 11.8551 23.5259 11.4176C25.2376 10.3406 26.3896 8.38018 26.3896 6.15052C26.3896 2.75132 23.7368 0 20.4594 0C17.182 0 14.5293 2.75974 14.5293 6.15052C14.5293 8.38018 15.6731 10.3406 17.393 11.4176C15.9976 11.8551 14.724 12.5871 13.6369 13.5379C12.8419 12.8143 11.9171 12.2505 10.903 11.8888C12.1037 11.0137 12.8987 9.55812 12.8987 7.91742C12.8987 5.23341 10.8057 3.06264 8.21785 3.06264C5.63 3.06264 3.537 5.23341 3.537 7.91742C3.537 9.55812 4.3239 11.0137 5.53265 11.8888C2.31203 13.0414 0 16.2135 0 19.9408V20.4961C0 20.5129 0.0162248 20.5298 0.0324495 20.5298H9.9539C9.89711 20.9925 9.86466 21.4721 9.86466 21.9517V22.5238C9.86466 24.9975 11.7954 27 14.1805 27H26.7547C29.1397 27 31.0704 24.9975 31.0704 22.5238V21.9517C31.0704 21.4721 31.038 20.9925 30.9812 20.5298H40.9676C40.9838 20.5298 41 20.5129 41 20.4961V19.9408C40.9838 16.205 38.6799 13.033 35.4592 11.8803ZM29.3912 7.90059C29.3912 5.96541 30.9082 4.39202 32.774 4.39202C34.6399 4.39202 36.1569 5.96541 36.1569 7.90059C36.1569 9.81053 34.6723 11.3671 32.8389 11.4092C32.8146 11.4092 32.7984 11.4092 32.774 11.4092C32.7497 11.4092 32.7335 11.4092 32.7091 11.4092C30.8676 11.3755 29.3912 9.81895 29.3912 7.90059ZM15.811 6.15052C15.811 3.50016 17.8878 1.34621 20.4432 1.34621C22.9986 1.34621 25.0754 3.50016 25.0754 6.15052C25.0754 8.70832 23.1365 10.8034 20.7109 10.9464C20.6217 10.9464 20.5324 10.9464 20.4432 10.9464C20.354 10.9464 20.2647 10.9464 20.1755 10.9464C17.7499 10.8034 15.811 8.70832 15.811 6.15052ZM4.81065 7.90059C4.81065 5.96541 6.32766 4.39202 8.19351 4.39202C10.0594 4.39202 11.5764 5.96541 11.5764 7.90059C11.5764 9.81053 10.0918 11.3671 8.25841 11.4092C8.23407 11.4092 8.21785 11.4092 8.19351 11.4092C8.16917 11.4092 8.15295 11.4092 8.12861 11.4092C6.29521 11.3755 4.81065 9.81895 4.81065 7.90059ZM10.181 19.1751H1.31421C1.67926 15.5908 4.59972 12.7806 8.14484 12.7554C8.16106 12.7554 8.17729 12.7554 8.19351 12.7554C8.20973 12.7554 8.22596 12.7554 8.24218 12.7554C9.92956 12.7638 11.4709 13.4117 12.6634 14.4634C11.4953 15.7759 10.6272 17.3914 10.181 19.1751ZM29.7562 22.5238C29.7562 24.2487 28.4015 25.6538 26.7384 25.6538H14.1642C12.5012 25.6538 11.1464 24.2487 11.1464 22.5238V21.9517C11.1464 16.7267 15.1702 12.4525 20.1755 12.301C20.2647 12.3094 20.3621 12.3094 20.4513 12.3094C20.5406 12.3094 20.6379 12.3094 20.7271 12.301C25.7325 12.4525 29.7562 16.7267 29.7562 21.9517V22.5238ZM30.7216 19.1751C30.2754 17.3998 29.4236 15.8096 28.2636 14.497C29.4642 13.4201 31.0218 12.7722 32.7254 12.7554C32.7416 12.7554 32.7578 12.7554 32.774 12.7554C32.7903 12.7554 32.8065 12.7554 32.8227 12.7554C36.3678 12.7806 39.2883 15.5908 39.6533 19.1751H30.7216Z" fill="#FF4838"/>
</svg>
