<svg width="27" height="27" viewBox="0 0 27 27" fill="none" xmlns="http://www.w3.org/2000/svg">
<path d="M13.5 5.4C14.9912 5.4 16.2 4.19117 16.2 2.7C16.2 1.20883 14.9912 0 13.5 0C12.0089 0 10.8 1.20883 10.8 2.7C10.8 4.19117 12.0089 5.4 13.5 5.4Z" fill="#FF4838"/>
<path d="M13.5 21.6H16.2V14.85H18.9V9.45C18.9 7.96095 17.6891 6.75 16.2 6.75H10.8C9.31096 6.75 8.10001 7.96095 8.10001 9.45V14.85H10.8V21.6H13.5Z" fill="#FF4838"/>
<path d="M22.2021 12.6711L20.9966 15.0863C23.0958 16.1325 24.3 17.523 24.3 18.9C24.3 21.4542 19.8653 24.3001 13.5 24.3001C7.13475 24.3001 2.7 21.4542 2.7 18.9C2.7 17.523 3.9042 16.1325 6.0021 15.0863L4.79655 12.6711C1.74825 14.1912 0 16.4606 0 18.9C0 23.4415 5.93055 27.0001 13.5 27.0001C21.0695 27.0001 27 23.4415 27 18.9C27 16.4606 25.2518 14.1912 22.2021 12.6711Z" fill="#FF4838"/>
</svg>
