<svg width="82" height="66" viewBox="0 0 82 66" fill="none" xmlns="http://www.w3.org/2000/svg">
<path opacity="0.05" d="M6.96046 9.4545C-0.770465 17.9025 0.00795309 28.7512 0.032535 28.875L0.0325321 61.875C0.032532 62.969 0.464165 64.0182 1.23249 64.7918C2.00082 65.5654 3.04289 66 4.12947 66L28.7111 66C33.23 66 36.905 62.2999 36.905 57.75L36.905 28.875C36.905 27.781 36.4734 26.7318 35.705 25.9582C34.9367 25.1846 33.8946 24.75 32.8081 24.75L20.1977 24.75C20.2842 22.7107 20.8894 20.7278 21.9553 18.9915C24.0365 15.6874 27.9573 13.431 33.6151 12.2925L36.905 11.6325L36.905 3.68706e-06L32.8081 3.3289e-06C21.4063 2.33212e-06 12.7085 3.18038 6.96046 9.4545ZM52.0555 9.4545C44.3205 17.9025 45.103 28.7513 45.1275 28.875L45.1275 61.875C45.1275 62.969 45.5592 64.0182 46.3275 64.7918C47.0958 65.5654 48.1379 66 49.2245 66L73.8061 66C78.325 66 82 62.2999 82 57.75L82 28.875C82 27.781 81.5684 26.7318 80.8 25.9582C80.0317 25.1846 78.9896 24.75 77.9031 24.75L65.2927 24.75C65.3792 22.7107 65.9844 20.7278 67.0503 18.9915C69.1315 15.6874 73.0523 13.431 78.7102 12.2925L82 11.6325L82 7.62939e-06L77.9031 7.27123e-06C66.5013 6.27445e-06 57.8035 3.18038 52.0555 9.4545Z" fill="#162B32"/>
</svg>
